<svg width="35" height="35" viewBox="0 0 35 35" fill="none" xmlns="http://www.w3.org/2000/svg">
<path d="M19.7045 28.4095C19.7069 27.0849 20.085 25.7881 20.795 24.6698C21.505 23.5515 22.5177 22.6576 23.7155 22.092L21.8955 21.287C21.5952 21.1762 21.3338 20.98 21.1435 20.7226C20.9532 20.4651 20.8423 20.1577 20.8245 19.838C20.7055 18.788 21.087 18.004 21.7275 17.206C23.6652 14.8356 24.7226 11.8676 24.72 8.806C24.734 4.0845 21.521 0.700003 16.7505 0.882003C13.2505 1.0115 10.3175 3.367 9.72605 6.832C9.02605 10.8255 10.1915 14.3465 12.68 17.4685C14.0205 19.152 13.6495 20.6185 11.665 21.483C10.0274 22.1604 8.43611 22.945 6.90155 23.8315C5.74122 24.5338 4.69147 25.4042 3.78655 26.4145C3.27876 26.9809 2.95314 27.687 2.85205 28.441C2.85205 28.532 2.85205 28.623 2.85205 28.7105C6.72792 32.218 11.7753 34.1493 17.0025 34.125C18.6737 34.1267 20.3394 33.9329 21.9655 33.5475C21.2533 32.8944 20.6846 32.1005 20.2954 31.216C19.9062 30.3315 19.705 29.3758 19.7045 28.4095Z" fill="#3F9752"/>
<path d="M29.7498 32.9385C30.3311 32.5451 30.8313 32.0437 31.2233 31.4615C31.3213 31.318 31.4123 31.1675 31.4963 31.0135C31.9296 30.2141 32.1558 29.3188 32.1543 28.4095C32.1182 26.9858 31.5274 25.6326 30.5077 24.6384C29.488 23.6442 28.1202 23.0877 26.696 23.0877C25.2719 23.0877 23.9041 23.6442 22.8844 24.6384C21.8647 25.6326 21.2738 26.9858 21.2378 28.4095C21.2394 29.3189 21.4667 30.2136 21.8993 31.0135C21.9833 31.1675 22.0743 31.318 22.1723 31.4615C22.5653 32.0429 23.0654 32.5441 23.6458 32.9385C24.5479 33.5455 25.6105 33.8697 26.6978 33.8697C27.7851 33.8697 28.8477 33.5455 29.7498 32.9385ZM26.0608 31.6645V29.05H23.4498V27.769H26.0608V25.158H27.3453V27.769H29.9598V29.05H27.3453V31.661L26.0608 31.6645Z" fill="#3F9752"/>
</svg>
