<svg width="20" height="20" viewBox="0 0 20 20" fill="none" xmlns="http://www.w3.org/2000/svg">
<path d="M11.2594 16.234C11.2607 15.4771 11.4768 14.736 11.8825 14.097C12.2882 13.458 12.8669 12.9472 13.5514 12.624L12.5114 12.164C12.3398 12.1007 12.1904 11.9886 12.0816 11.8415C11.9729 11.6944 11.9095 11.5187 11.8994 11.336C11.8314 10.736 12.0494 10.288 12.4154 9.832C13.5226 8.47751 14.1269 6.78148 14.1254 5.032C14.1334 2.334 12.2974 0.400002 9.57139 0.504002C7.57139 0.578002 5.89539 1.924 5.55739 3.904C5.15739 6.186 5.82339 8.198 7.24539 9.982C8.01139 10.944 7.79939 11.782 6.66539 12.276C5.72959 12.6631 4.82029 13.1114 3.94339 13.618C3.28035 14.0193 2.68049 14.5167 2.16339 15.094C1.87323 15.4177 1.68716 15.8212 1.62939 16.252C1.62939 16.304 1.62939 16.356 1.62939 16.406C3.84418 18.4103 6.72839 19.5139 9.71539 19.5C10.6704 19.501 11.6222 19.3902 12.5514 19.17C12.1444 18.7968 11.8194 18.3431 11.597 17.8377C11.3746 17.3323 11.2596 16.7862 11.2594 16.234Z" fill="#F38064"/>
<path fill-rule="evenodd" clip-rule="evenodd" d="M15.1 13.2C13.3879 13.2 12 14.5879 12 16.3C12 18.0121 13.3879 19.4 15.1 19.4H15.3C17.0121 19.4 18.4 18.0121 18.4 16.3C18.4 14.5879 17.0121 13.2 15.3 13.2H15.1ZM17.0007 16H13.4007V16.8H17.0007V16Z" fill="#F38064"/>
</svg>
