<svg width="35" height="35" viewBox="0 0 35 35" fill="none" xmlns="http://www.w3.org/2000/svg">
<g clip-path="url(#clip0_0_19)">
<path d="M19.7047 28.4095C19.707 27.0849 20.0851 25.7881 20.7951 24.6698C21.5051 23.5515 22.5179 22.6576 23.7157 22.092L21.8957 21.287C21.5953 21.1762 21.3339 20.98 21.1436 20.7226C20.9533 20.4651 20.8424 20.1577 20.8247 19.838C20.7057 18.788 21.0872 18.004 21.7277 17.206C23.6654 14.8356 24.7227 11.8676 24.7202 8.806C24.7342 4.0845 21.5212 0.700003 16.7507 0.882003C13.2507 1.0115 10.3177 3.367 9.72617 6.832C9.02617 10.8255 10.1917 14.3465 12.6802 17.4685C14.0207 19.152 13.6497 20.6185 11.6652 21.483C10.0275 22.1604 8.43623 22.945 6.90167 23.8315C5.74135 24.5338 4.69159 25.4042 3.78667 26.4145C3.27888 26.9809 2.95327 27.687 2.85217 28.441C2.85217 28.532 2.85217 28.623 2.85217 28.7105C6.72804 32.218 11.7754 34.1493 17.0027 34.125C18.6739 34.1267 20.3395 33.9329 21.9657 33.5475C21.2535 32.8944 20.6847 32.1005 20.2955 31.216C19.9063 30.3315 19.7051 29.3758 19.7047 28.4095Z" fill="#4A586E"/>
<path d="M29.7499 32.9385C30.3312 32.5451 30.8314 32.0437 31.2234 31.4615C31.3214 31.318 31.4124 31.1675 31.4964 31.0135C31.9297 30.214 32.1559 29.3188 32.1544 28.4095C32.1184 26.9858 31.5275 25.6325 30.5078 24.6384C29.4881 23.6442 28.1203 23.0877 26.6962 23.0877C25.272 23.0877 23.9042 23.6442 22.8845 24.6384C21.8649 25.6325 21.274 26.9858 21.2379 28.4095C21.2396 29.3189 21.4668 30.2136 21.8994 31.0135C21.9834 31.1675 22.0744 31.318 22.1724 31.4615C22.5654 32.0429 23.0655 32.5441 23.6459 32.9385C24.548 33.5455 25.6106 33.8697 26.6979 33.8697C27.7852 33.8697 28.8478 33.5455 29.7499 32.9385ZM26.0609 31.6645L26.0609 29.05L23.4499 29.05L23.4499 27.769L26.0609 27.769L26.0609 25.158L27.3454 25.158L27.3454 27.769L29.9599 27.769L29.9599 29.05L27.3454 29.05L27.3454 31.661L26.0609 31.6645Z" fill="#4A586E"/>
</g>
<defs>
<clipPath id="clip0_0_19">
<rect width="35" height="35" fill="white"/>
</clipPath>
</defs>
</svg>
