<svg width="20" height="20" viewBox="0 0 20 20" fill="none" xmlns="http://www.w3.org/2000/svg">
<g clip-path="url(#clip0_0_22)">
<path d="M11.2596 16.234C11.2609 15.4771 11.477 14.736 11.8827 14.097C12.2884 13.458 12.8671 12.9472 13.5516 12.624L12.5116 12.164C12.3399 12.1007 12.1905 11.9886 12.0818 11.8415C11.9731 11.6944 11.9097 11.5187 11.8996 11.336C11.8316 10.736 12.0496 10.288 12.4156 9.832C13.5228 8.47751 14.127 6.78148 14.1256 5.032C14.1336 2.334 12.2976 0.400002 9.57157 0.504002C7.57158 0.578002 5.89558 1.924 5.55758 3.904C5.15758 6.186 5.82358 8.198 7.24558 9.982C8.01158 10.944 7.79958 11.782 6.66558 12.276C5.72977 12.6631 4.82047 13.1114 3.94358 13.618C3.28053 14.0193 2.68067 14.5167 2.16358 15.094C1.87341 15.4177 1.68735 15.8212 1.62958 16.252C1.62958 16.304 1.62958 16.356 1.62958 16.406C3.84436 18.4103 6.72858 19.5139 9.71558 19.5C10.6705 19.501 11.6223 19.3902 12.5516 19.17C12.1446 18.7968 11.8196 18.3431 11.5972 17.8377C11.3748 17.3323 11.2598 16.7862 11.2596 16.234Z" fill="#A6B1C3"/>
<path fill-rule="evenodd" clip-rule="evenodd" d="M15.1001 13.2C13.388 13.2 12.0001 14.5879 12.0001 16.3C12.0001 18.0121 13.388 19.4 15.1001 19.4L15.3001 19.4C17.0121 19.4 18.4001 18.0121 18.4001 16.3C18.4001 14.5879 17.0121 13.2 15.3001 13.2L15.1001 13.2ZM17.0006 16L13.4006 16L13.4006 16.8L17.0006 16.8L17.0006 16Z" fill="#A6B1C3"/>
</g>
<defs>
<clipPath id="clip0_0_22">
<rect width="20" height="20" fill="white"/>
</clipPath>
</defs>
</svg>
